<svg xmlns="http://www.w3.org/2000/svg" viewBox="0 0 64 64" width="64" height="64">
  <defs>
    <linearGradient id="g" x1="0" y1="0" x2="1" y2="1">
      <stop offset="0%" stop-color="#FFC72C"/>
      <stop offset="48%" stop-color="#F57C1F"/>
      <stop offset="100%" stop-color="#E1251B"/>
    </linearGradient>
  </defs>
  <rect width="64" height="64" rx="16" fill="url(#g)"/>
  <path fill="#fff" d="M24.4 14h9.9c5.3 0 8.6 2.7 8.6 7 0 2.7-1.3 4.7-3.5 5.7 2.9.9 4.6 3.2 4.6 6.4 0 4.8-3.5 7.9-9.3 7.9H24.4V14zm5.8 4.7v6.6h4.2c2.3 0 3.6-1.3 3.6-3.3s-1.3-3.3-3.6-3.3h-4.2zm0 11.2v6.4h4.7c2.4 0 3.8-1.3 3.8-3.2 0-2-1.4-3.2-3.8-3.2h-4.7z"/>
</svg>
